<svg xmlns="http://www.w3.org/2000/svg" viewBox="0 0 32 32">
  <defs>
    <linearGradient id="g" x1="0" y1="0" x2="1" y2="1">
      <stop offset="0%" stop-color="#B8A9D4"/>
      <stop offset="100%" stop-color="#9585B5"/>
    </linearGradient>
  </defs>
  <circle cx="16" cy="16" r="16" fill="url(#g)"/>
  <ellipse cx="16" cy="9.5" rx="2.8" ry="5.8" fill="white" opacity="0.85"/>
  <ellipse cx="16" cy="9.5" rx="2.8" ry="5.8" fill="white" opacity="0.85" transform="rotate(45 16 16)"/>
  <ellipse cx="16" cy="9.5" rx="2.8" ry="5.8" fill="white" opacity="0.85" transform="rotate(90 16 16)"/>
  <ellipse cx="16" cy="9.5" rx="2.8" ry="5.8" fill="white" opacity="0.85" transform="rotate(135 16 16)"/>
  <ellipse cx="16" cy="9.5" rx="2.8" ry="5.8" fill="white" opacity="0.85" transform="rotate(180 16 16)"/>
  <ellipse cx="16" cy="9.5" rx="2.8" ry="5.8" fill="white" opacity="0.85" transform="rotate(225 16 16)"/>
  <ellipse cx="16" cy="9.5" rx="2.8" ry="5.8" fill="white" opacity="0.85" transform="rotate(270 16 16)"/>
  <ellipse cx="16" cy="9.5" rx="2.8" ry="5.8" fill="white" opacity="0.85" transform="rotate(315 16 16)"/>
  <circle cx="16" cy="16" r="3.5" fill="#F5E6A3"/>
  <circle cx="16" cy="16" r="1.8" fill="#EDCF6A"/>
</svg>
