<svg xmlns="http://www.w3.org/2000/svg" viewBox="0 0 512 512">
  <defs>
    <linearGradient id="bg" x1="0" y1="0" x2="1" y2="1">
      <stop offset="0%" stop-color="#B8A9D4"/>
      <stop offset="100%" stop-color="#9585B5"/>
    </linearGradient>
  </defs>
  <circle cx="256" cy="256" r="256" fill="url(#bg)"/>
  <ellipse cx="256" cy="152" rx="45" ry="94" fill="white" opacity="0.85"/>
  <ellipse cx="256" cy="152" rx="45" ry="94" fill="white" opacity="0.85" transform="rotate(45 256 256)"/>
  <ellipse cx="256" cy="152" rx="45" ry="94" fill="white" opacity="0.85" transform="rotate(90 256 256)"/>
  <ellipse cx="256" cy="152" rx="45" ry="94" fill="white" opacity="0.85" transform="rotate(135 256 256)"/>
  <ellipse cx="256" cy="152" rx="45" ry="94" fill="white" opacity="0.85" transform="rotate(180 256 256)"/>
  <ellipse cx="256" cy="152" rx="45" ry="94" fill="white" opacity="0.85" transform="rotate(225 256 256)"/>
  <ellipse cx="256" cy="152" rx="45" ry="94" fill="white" opacity="0.85" transform="rotate(270 256 256)"/>
  <ellipse cx="256" cy="152" rx="45" ry="94" fill="white" opacity="0.85" transform="rotate(315 256 256)"/>
  <circle cx="256" cy="256" r="56" fill="#F5E6A3"/>
  <circle cx="256" cy="256" r="30" fill="#EDCF6A"/>
</svg>
